<?xml version="1.0" standalone="no"?>
<!DOCTYPE svg PUBLIC "-//W3C//DTD SVG 20010904//EN"
 "http://www.w3.org/TR/2001/REC-SVG-20010904/DTD/svg10.dtd">
<svg version="1.0" xmlns="http://www.w3.org/2000/svg"
 width="500.000000pt" height="500.000000pt" viewBox="0 0 500.000000 500.000000"
 preserveAspectRatio="xMidYMid meet">

<g transform="translate(0.000000,500.000000) scale(0.100000,-0.100000)"
fill="#000000" stroke="none">
<path d="M1007 4423 c-9 -8 -9 -46 -1 -67 8 -20 51 -1 60 26 10 32 -36 65 -59
41z m51 -20 c5 -17 -26 -29 -40 -15 -6 6 -7 15 -3 22 9 14 37 9 43 -7z"/>
<path d="M1968 4293 c6 -2 18 -2 25 0 6 3 1 5 -13 5 -14 0 -19 -2 -12 -5z"/>
<path d="M1805 4268 c-170 -41 -295 -103 -295 -145 0 -9 17 -1 43 21 54 44
135 80 247 111 82 23 86 33 5 13z"/>
<path d="M1001 4224 c0 -11 3 -14 6 -6 3 7 2 16 -1 19 -3 4 -6 -2 -5 -13z"/>
<path d="M2033 4174 c15 -17 27 -35 27 -40 0 -17 35 -44 56 -44 48 0 62 68 19
96 -23 15 -27 15 -50 0 -23 -15 -27 -15 -52 1 l-28 17 28 -30z m107 -4 c0 -5
-4 -10 -9 -10 -6 0 -13 5 -16 10 -3 6 1 10 9 10 9 0 16 -4 16 -10z"/>
<path d="M3000 4114 c36 -20 70 -37 77 -37 8 0 8 -5 0 -19 -10 -16 -8 -23 12
-39 31 -26 56 -21 56 11 0 21 -13 31 -80 66 -104 54 -149 66 -65 18z"/>
<path d="M3672 4116 c5 -28 34 -44 50 -28 11 11 10 12 -3 7 -11 -4 -23 2 -34
17 -14 19 -16 20 -13 4z"/>
<path d="M2225 3954 c-142 -40 -155 -46 -203 -89 -35 -32 -52 -56 -61 -87 -18
-67 -42 -523 -31 -597 19 -139 145 -248 330 -286 187 -39 760 -84 905 -71 104
10 171 32 214 72 67 60 81 129 81 403 0 231 -10 304 -51 389 -66 136 -222 198
-609 242 -52 6 -115 14 -140 16 -224 26 -363 28 -435 8z m149 -516 c15 -13 29
-37 32 -55 5 -27 1 -37 -25 -64 -26 -25 -37 -30 -59 -24 -74 18 -96 93 -41
139 38 32 60 33 93 4z m815 -90 c37 -38 42 -87 11 -118 -29 -29 -66 -25 -101
9 -28 28 -41 81 -19 81 6 0 10 8 10 18 0 50 55 55 99 10z"/>
<path d="M939 3946 c-28 -13 -37 -62 -19 -96 16 -29 60 -23 79 11 29 51 -12
109 -60 85z"/>
<path d="M1315 3940 c-15 -7 -10 -9 24 -9 82 -2 135 -88 167 -277 17 -102 15
-236 -4 -284 -9 -20 -11 -5 -11 70 -1 105 -22 257 -46 337 -19 64 -80 133
-116 133 -23 -1 -22 -2 6 -14 39 -17 60 -41 85 -99 88 -199 70 -688 -33 -909
-34 -73 -56 -102 -98 -132 -13 -9 -21 -17 -18 -20 5 -5 88 9 114 20 18 7 19 6
5 -11 -14 -17 -14 -17 16 -2 84 43 135 154 170 365 24 151 16 484 -16 592 -23
79 -63 162 -89 183 -9 7 -7 0 6 -18 11 -16 23 -41 27 -55 6 -23 5 -23 -6 -6
-7 10 -27 38 -45 62 -17 23 -29 44 -26 47 16 16 -82 40 -112 27z"/>
<path d="M871 3795 c-33 -28 -39 -53 -19 -73 9 -9 8 -12 -8 -12 -11 0 -28 -6
-38 -13 -15 -11 -16 -17 -5 -40 7 -16 20 -27 31 -27 11 0 16 -5 12 -11 -3 -6
-17 -8 -29 -5 -35 9 -41 -13 -11 -40 29 -28 33 -39 11 -30 -24 9 -32 -24 -10
-40 15 -11 16 -16 5 -29 -15 -18 -6 -45 15 -45 19 0 19 -14 0 -30 -22 -18 -19
-29 10 -36 27 -7 31 -14 15 -30 -11 -11 -2 -54 11 -54 5 0 15 -16 23 -35 10
-24 22 -35 35 -35 14 0 20 -6 19 -17 -1 -10 10 -46 26 -80 31 -69 75 -100 123
-88 26 6 103 76 103 93 0 5 10 22 23 38 20 25 22 40 22 134 0 62 -5 120 -13
143 -16 45 -58 97 -79 97 -12 0 -12 -2 -1 -14 9 -8 15 -38 16 -76 l2 -63 -23
33 c-12 18 -30 38 -40 44 -28 18 -68 -12 -99 -74 -34 -68 -35 -63 -2 36 36
111 79 186 136 240 39 36 55 45 75 41 l25 -5 -25 24 c-42 39 -74 32 -132 -29
-78 -80 -125 -197 -125 -310 0 -37 -3 -43 -23 -45 -25 -2 -33 22 -15 45 11 14
1 53 -14 53 -6 0 -5 7 3 16 11 14 11 18 -4 28 -12 9 -13 16 -6 23 14 14 3 33
-17 33 -22 0 -17 16 11 34 29 19 32 41 8 55 -17 10 -17 12 2 26 16 13 18 19 7
35 -16 25 -15 30 2 30 8 0 22 10 30 22 17 24 22 78 7 78 -5 0 -16 2 -24 6 -8
3 -28 -7 -46 -21z m220 -407 c8 -18 14 -65 14 -105 0 -57 -4 -77 -21 -100 -29
-39 -56 -36 -71 7 -14 41 -17 114 -4 106 5 -3 12 -22 15 -41 4 -21 13 -35 22
-35 13 0 13 3 0 23 -14 21 -18 67 -6 67 3 0 11 -5 18 -12 7 -7 12 -8 12 -2 0
6 -11 17 -25 24 -29 15 -31 30 -10 70 20 39 39 38 56 -2z m-181 -132 c0 -3 -4
-8 -10 -11 -5 -3 -10 -1 -10 4 0 6 5 11 10 11 6 0 10 -2 10 -4z m142 -140 c22
-4 37 -1 49 10 17 16 18 15 9 -17 -32 -111 -141 -74 -132 45 l4 47 20 -39 c14
-30 27 -41 50 -46z"/>
<path d="M3623 3665 l-32 -30 25 -40 c13 -22 26 -44 28 -50 4 -11 29 16 52 59
12 22 13 34 5 52 -18 40 -42 43 -78 9z"/>
<path d="M1823 3240 c0 -47 2 -66 4 -42 2 23 2 61 0 85 -2 23 -4 4 -4 -43z"/>
<path d="M3767 3190 c6 -124 -10 -236 -47 -345 -11 -32 -18 -60 -16 -62 7 -8
47 90 63 155 19 78 23 303 6 342 -8 19 -10 -2 -6 -90z"/>
<path d="M3726 3158 c-3 -13 -6 -41 -6 -64 0 -55 -37 -255 -59 -321 -24 -71
-8 -68 19 4 35 94 50 172 57 291 6 107 2 138 -11 90z"/>
<path d="M1850 3075 c0 -10 40 -75 47 -75 2 0 -6 17 -18 38 -28 45 -29 47 -29
37z"/>
<path d="M3461 2998 c0 -9 -4 -25 -7 -35 -5 -17 -5 -17 6 0 6 10 9 25 7 35 -4
15 -5 15 -6 0z"/>
<path d="M4039 2828 c-7 -13 -14 -52 -16 -87 -2 -39 -9 -71 -18 -81 -34 -37
-7 -90 45 -90 16 0 36 7 44 16 18 18 21 85 5 101 -9 9 -8 16 4 28 22 22 11
115 -14 115 -13 0 -30 -48 -32 -92 -1 -20 -5 -34 -9 -32 -11 7 -1 82 16 116
12 24 12 28 1 28 -8 0 -20 -10 -26 -22z m68 -64 c-3 -3 -12 -4 -19 -1 -8 3 -5
6 6 6 11 1 17 -2 13 -5z"/>
<path d="M4226 2795 c-9 -14 -22 -51 -29 -83 -11 -46 -18 -58 -35 -60 -24 -4
-38 -38 -28 -70 4 -11 2 -31 -4 -46 -7 -19 -7 -33 0 -46 9 -18 8 -18 -20 -9
-22 8 -30 17 -30 36 0 22 -3 24 -42 21 -36 -2 -44 -7 -46 -26 -4 -23 -30 -45
-71 -57 -21 -7 -23 -5 -17 16 20 73 21 69 -15 69 -74 0 -120 -57 -104 -129 4
-19 0 -41 -10 -61 -9 -17 -18 -64 -20 -103 l-4 -72 9 66 c4 37 13 77 20 89 11
20 12 21 24 4 13 -17 11 -49 -5 -69 -4 -6 -1 -39 6 -75 18 -81 18 -83 3 -75
-7 4 -5 0 4 -8 16 -12 12 -14 -31 -9 -30 2 -55 0 -63 -7 -7 -6 -22 -18 -33
-25 -18 -13 -18 -14 8 -9 16 3 27 1 27 -6 0 -5 6 -8 13 -6 13 5 30 -5 132 -77
36 -27 71 -48 76 -48 6 0 24 -9 40 -21 l29 -20 0 33 c0 37 -30 77 -58 79 -11
0 -12 2 -4 6 7 3 -6 17 -34 36 -61 40 -88 97 -87 187 0 66 27 149 53 165 9 6
11 4 5 -6 -4 -8 8 1 28 20 30 28 46 35 112 44 59 9 81 8 96 -1 11 -7 24 -10
30 -7 5 4 8 1 7 -7 -2 -7 5 -13 14 -13 9 0 20 -4 25 -9 5 -5 2 -6 -7 -1 -8 5
-5 -3 8 -17 19 -21 29 -24 50 -19 32 9 75 68 68 94 -3 13 0 17 9 13 7 -2 20 3
27 12 27 32 57 91 48 97 -4 3 -2 28 6 57 13 53 11 75 -6 48 -9 -13 -10 -13
-11 0 -1 25 -28 -43 -29 -72 0 -16 -4 -29 -10 -29 -5 -1 -15 -2 -20 -3 -14 -1
-50 -57 -50 -78 0 -9 -5 -20 -12 -24 -7 -5 -8 -3 -3 7 7 12 6 12 -7 1 -9 -7
-21 -26 -28 -42 -15 -36 -17 -36 -55 -4 -20 17 -23 22 -8 15 12 -6 25 -11 29
-11 7 0 0 42 -11 72 -5 13 0 20 18 27 41 16 52 118 15 144 -13 9 -18 16 -11
16 6 1 14 -3 18 -9 6 -10 36 -2 47 14 18 26 2 106 -21 106 -5 0 -16 -11 -25
-25z m-66 -185 c0 -5 -2 -10 -4 -10 -3 0 -8 5 -11 10 -3 6 -1 10 4 10 6 0 11
-4 11 -10z"/>
<path d="M3844 2643 c-22 -51 -7 -83 39 -83 40 0 57 15 57 50 0 37 -27 70 -56
70 -19 0 -29 -8 -40 -37z"/>
<path d="M1860 2480 c-13 -8 -12 -10 4 -10 75 0 296 -25 296 -32 0 -6 -9 -21
-20 -35 -22 -28 -27 -69 -8 -75 27 -9 -3 -36 -49 -43 -26 -3 -76 -13 -110 -22
l-63 -15 52 -46 c28 -26 58 -48 67 -50 35 -8 111 -11 111 -4 0 4 50 7 110 7
79 0 113 4 119 13 5 8 16 -4 35 -37 33 -61 56 -80 27 -22 -12 22 -21 44 -21
48 0 5 31 10 69 11 96 4 132 9 144 21 16 16 94 13 130 -5 l32 -17 -26 25 c-14
13 -30 31 -35 40 -6 11 -33 21 -73 27 -67 11 -81 21 -81 58 0 12 -4 24 -9 28
-14 8 -42 66 -36 75 2 4 29 5 58 2 30 -2 57 0 60 5 4 7 -76 13 -216 17 -201 6
-508 30 -540 41 -6 3 -19 0 -27 -5z"/>
<path d="M1825 2231 c-62 -15 -109 -53 -80 -65 9 -3 13 -2 10 4 -3 6 4 10 16
10 22 0 22 0 3 -15 -10 -8 -29 -15 -41 -15 -12 0 -26 -6 -30 -14 -4 -7 -23
-21 -42 -31 -30 -15 -36 -15 -45 -3 -15 20 -51 38 -73 37 -10 0 -13 -3 -6 -5
7 -3 10 -11 7 -18 -3 -8 2 -16 10 -19 9 -4 16 -1 16 6 1 7 8 -1 17 -18 18 -33
26 -107 12 -115 -5 -3 -10 -16 -12 -28 -2 -12 -10 -28 -17 -35 -12 -10 -12 -9
-1 6 19 24 2 21 -26 -5 -21 -19 -27 -20 -68 -11 -45 10 -45 10 -28 -9 16 -18
16 -19 -9 -9 -21 8 -25 7 -24 -7 1 -11 -7 -17 -21 -17 -11 0 -25 -3 -29 -7 -4
-5 -16 -8 -26 -8 -13 0 -26 -15 -39 -46 l-20 -45 20 -35 c29 -48 27 -57 -16
-85 -28 -18 -38 -31 -38 -51 0 -14 -7 -34 -16 -44 -12 -14 -14 -25 -8 -41 10
-28 28 -29 80 -3 22 12 44 18 50 15 14 -9 48 36 49 64 0 14 -12 37 -26 52
l-26 27 30 39 c17 21 40 65 51 98 l19 60 47 6 c53 6 75 -7 75 -46 0 -13 6 -30
14 -37 7 -8 17 -25 21 -38 4 -14 13 -34 20 -45 6 -11 18 -37 24 -58 8 -22 17
-34 23 -31 7 4 8 2 4 -4 -4 -7 -2 -20 3 -29 6 -10 11 -14 11 -9 0 5 8 0 18
-11 22 -25 54 -21 101 14 l36 26 -23 -25 c-22 -24 -42 -35 -94 -51 -15 -5 -15
-8 0 -41 9 -20 27 -39 41 -45 16 -5 35 -27 51 -57 13 -27 34 -59 46 -70 17
-16 19 -25 11 -33 -8 -8 -1 -15 28 -27 32 -13 45 -26 64 -66 17 -35 37 -58 68
-78 l45 -29 -39 -10 c-21 -6 -43 -11 -49 -11 -24 0 -64 -42 -70 -75 -6 -32 -8
-33 -50 -32 -24 0 -55 -5 -68 -12 -27 -15 -70 -86 -61 -101 3 -5 2 -10 -4 -10
-6 0 -8 -7 -5 -15 4 -8 2 -15 -4 -15 -5 0 -12 -10 -16 -22 -5 -22 -6 -22 -20
-3 -8 12 -12 31 -9 47 4 23 0 31 -25 45 -29 16 -29 18 -14 41 24 37 22 72 -7
91 -40 26 -187 26 -258 -1 -75 -28 -132 -81 -140 -131 -7 -46 14 -51 38 -9 18
32 75 77 82 65 11 -18 -15 -54 -50 -69 -32 -15 -35 -18 -17 -21 18 -3 23 -14
28 -56 11 -81 16 -96 39 -103 33 -10 45 -28 58 -80 13 -52 39 -82 51 -61 7 14
11 66 9 121 l-1 38 -40 -4 c-37 -3 -41 -1 -47 22 -4 14 -7 54 -7 90 l-1 65 59
9 c67 11 86 3 101 -41 6 -16 16 -37 24 -46 8 -10 11 -31 9 -54 -6 -47 6 -83
28 -83 11 0 14 -5 10 -16 -7 -18 13 -84 26 -84 9 0 39 56 33 62 -3 2 5 24 17
49 11 24 24 55 28 69 5 18 9 5 14 -48 10 -98 30 -160 67 -212 21 -29 26 -41
15 -37 -10 4 -14 3 -11 -2 15 -25 80 -32 250 -27 159 4 181 7 223 28 33 16 48
30 50 46 3 21 1 22 -16 13 -13 -7 -22 -7 -24 -1 -2 5 -40 10 -85 11 l-83 2 -1
41 c-2 34 -3 36 -6 11 -8 -49 -16 -53 -80 -40 l-58 12 -13 -36 c-20 -56 -29
-56 -23 1 12 125 5 251 -17 307 -27 69 -20 79 10 15 13 -27 29 -56 37 -64 12
-12 13 -6 7 43 l-8 58 39 -6 c21 -4 51 -16 67 -27 16 -12 26 -16 22 -9 -5 8
16 11 73 11 74 0 98 9 71 25 -13 8 -13 56 0 91 9 23 7 33 -15 66 -14 21 -31
38 -38 38 -6 0 -25 10 -41 23 l-28 23 36 36 c20 20 36 45 36 56 0 11 3 27 6
35 3 10 -18 31 -65 66 -39 28 -71 55 -71 60 0 5 15 22 33 36 l32 27 -38 -21
c-21 -11 -40 -21 -42 -21 -5 0 -31 73 -49 138 l-15 53 39 60 c45 70 60 129 60
238 0 144 -35 260 -101 335 -61 69 -91 82 -154 67z m75 -222 c28 -54 43 -155
32 -214 l-10 -50 -1 71 c-1 75 -21 148 -56 204 -12 19 -28 46 -35 60 -12 24
-11 23 20 -5 17 -16 40 -46 50 -66z m17 -291 c-3 -8 -6 -5 -6 6 -1 11 2 17 5
13 3 -3 4 -12 1 -19z m-262 -766 c-3 -3 -11 0 -18 7 -9 10 -8 11 6 5 10 -3 15
-9 12 -12z m-145 -21 c0 -5 12 -24 27 -42 27 -31 27 -32 4 -19 -24 12 -96 9
-149 -6 -21 -6 -22 -6 -8 27 8 18 22 36 32 40 27 11 94 11 94 0z m309 -283
c-1 -43 -2 -48 -9 -27 -7 24 -3 79 6 79 2 0 4 -24 3 -52z m-12 -69 c8 -24 12
-51 10 -59 -4 -22 -29 26 -37 73 -10 53 11 43 27 -14z"/>
<path d="M3921 2214 c0 -11 3 -14 6 -6 3 7 2 16 -1 19 -3 4 -6 -2 -5 -13z"/>
<path d="M2617 2173 c-13 -13 -7 -50 11 -66 29 -26 42 -20 42 18 0 25 4 35 16
35 8 0 12 5 9 10 -7 11 -68 14 -78 3z"/>
<path d="M3780 2170 c0 -5 5 -10 11 -10 5 0 7 5 4 10 -3 6 -8 10 -11 10 -2 0
-4 -4 -4 -10z"/>
<path d="M3760 2156 c0 -8 4 -17 9 -20 5 -4 7 3 4 14 -6 23 -13 26 -13 6z"/>
<path d="M3100 2070 c14 -25 80 -238 80 -256 0 -19 27 -18 38 2 13 23 70 46
75 31 2 -7 9 -1 16 12 11 20 10 27 -9 54 -13 16 -17 26 -10 22 9 -6 11 -4 5 4
-4 8 -18 11 -36 7 -24 -4 -33 0 -54 28 -14 18 -25 40 -25 48 0 9 -9 26 -20 39
-17 21 -21 22 -30 9 -5 -8 -10 -10 -10 -4 0 7 -7 14 -15 18 -13 4 -13 2 -5
-14z"/>
<path d="M1482 2038 c-44 -22 -38 -98 9 -113 39 -13 91 33 80 70 -2 6 -4 19
-5 30 -1 24 -47 31 -84 13z m66 -42 c5 -22 -25 -56 -50 -56 -25 0 -45 44 -29
64 17 20 75 15 79 -8z"/>
<path d="M3547 1971 c-29 -27 -62 -51 -74 -55 -11 -4 -24 -13 -26 -21 -4 -10
-17 -12 -48 -8 -52 7 -69 -11 -69 -73 0 -47 25 -74 67 -74 29 0 29 -5 -2 -42
-27 -32 -33 -84 -12 -110 20 -26 49 -37 73 -28 21 8 21 7 11 -20 -21 -54 40
-90 91 -54 l23 16 -61 64 -60 65 0 62 c1 76 23 143 75 222 22 33 40 64 40 68
0 5 11 15 25 22 14 8 19 14 12 15 -7 0 -37 -22 -65 -49z"/>
<path d="M1296 1954 c-10 -26 -7 -34 14 -34 11 0 20 4 20 9 0 17 -12 41 -20
41 -4 0 -11 -7 -14 -16z"/>
<path d="M2516 1849 c-103 -15 -178 -75 -230 -184 -33 -69 -67 -185 -60 -197
7 -11 443 -5 693 8 158 9 154 3 149 194 -4 206 17 190 -267 189 -124 -1 -252
-5 -285 -10z m534 -314 c0 -8 -4 -15 -10 -15 -5 0 -7 7 -4 15 4 8 8 15 10 15
2 0 4 -7 4 -15z"/>
<path d="M1454 1458 c48 -53 135 -185 157 -239 10 -22 79 -91 79 -78 0 26 -34
138 -56 184 -45 95 -153 195 -212 195 -22 0 -19 -6 32 -62z"/>
<path d="M2632 1223 c-41 -5 -48 -22 -28 -61 39 -75 126 -96 185 -46 26 22 31
33 31 70 l0 44 -77 -2 c-43 0 -93 -3 -111 -5z"/>
<path d="M2667 1043 c-25 -10 -40 -26 -52 -51 l-16 -37 5 33 c5 30 4 32 -14
22 -20 -10 -74 -74 -106 -125 -10 -16 -13 -26 -7 -22 9 6 11 3 6 -10 -4 -10
-9 -20 -12 -23 -16 -14 -31 -55 -42 -114 -23 -126 23 -271 97 -302 25 -11 86
-14 251 -14 188 0 223 2 252 18 19 9 36 22 38 28 5 14 -63 43 -120 50 -37 5
-47 11 -47 25 0 11 -4 19 -10 19 -5 0 -10 -6 -10 -12 0 -9 -4 -8 -10 2 -8 12
-12 12 -18 2 -9 -13 -72 -6 -72 9 0 4 -9 9 -21 11 -20 3 -21 10 -24 134 l-3
132 29 -2 c32 -2 36 9 14 37 -12 16 -11 23 6 50 26 43 24 80 -6 115 -30 36
-61 43 -108 25z"/>
<path d="M2915 963 c2 -16 7 -54 10 -85 l6 -58 40 0 c21 0 39 2 39 3 0 14 -42
120 -55 141 -23 35 -46 34 -40 -1z"/>
<path d="M1293 641 c-45 -8 -66 -21 -45 -28 6 -3 12 -15 12 -28 0 -13 6 -28
13 -32 8 -4 16 -16 20 -25 3 -10 11 -18 16 -18 15 0 33 38 22 44 -5 3 -7 15
-4 25 3 10 0 22 -6 25 -16 10 -14 26 3 26 8 0 18 5 21 10 3 6 3 9 -2 9 -4 -1
-27 -5 -50 -8z"/>
<path d="M2110 580 c0 -5 5 -10 11 -10 5 0 7 5 4 10 -3 6 -8 10 -11 10 -2 0
-4 -4 -4 -10z"/>
<path d="M2023 573 c15 -2 37 -2 50 0 12 2 0 4 -28 4 -27 0 -38 -2 -22 -4z"/>
</g>
</svg>
